<svg width="62" height="54" viewBox="0 0 62 54" fill="none" xmlns="http://www.w3.org/2000/svg">
<path d="M4.22009 24.6497L11.4407 51.4238L50.5277 51.5463L57.5326 24.6497H4.22009Z" fill="#FDBF00"/>
<path d="M30.8765 51.4848L50.5278 51.5463L57.5327 24.6497H30.8765V51.4848Z" fill="#FF9100"/>
<path d="M58.7579 23.6217C58.4125 23.1833 57.8853 22.9274 57.3274 22.9274H17.8356C17.7562 22.9215 17.6754 22.9227 17.5939 22.9274H4.67555C4.11762 22.9274 3.59053 23.1831 3.24529 23.6213C2.90004 24.0594 2.77464 24.6318 2.90514 25.1742L9.34726 51.9576C9.54404 52.7759 10.276 53.3527 11.1177 53.3527H21.0403C21.0416 53.3527 21.0428 53.3528 21.0441 53.3528C21.0461 53.3528 21.0479 53.3527 21.0499 53.3527H40.9551C40.9571 53.3527 40.959 53.3528 40.9608 53.3528C40.9622 53.3528 40.9634 53.3527 40.9647 53.3527H50.8705C51.7117 53.3527 52.4435 52.7763 52.6406 51.9586L59.0975 25.175C59.2283 24.6325 59.1031 24.06 58.7579 23.6217ZM52.6662 36.3133H44.6938L45.9104 26.5691H55.0153L52.6662 36.3133ZM32.8235 49.711V39.9552H40.569L39.3509 49.711H32.8235ZM22.6538 49.711L21.4347 39.9552H29.1817V49.711H22.6538ZM20.9796 36.3133L19.7619 26.5691H29.1817V36.3133H20.9796ZM32.8235 36.3133V26.5691H42.2403L41.0237 36.3133H32.8235ZM16.0918 26.5691L17.3095 36.3133H9.33014L6.9864 26.5691H16.0918ZM10.206 39.9551H17.7646L18.9837 49.7109H12.5525L10.206 39.9551ZM49.4363 49.711H43.021L44.2391 39.9552H51.7882L49.4363 49.711Z" fill="#FF8700"/>
<path d="M57.3274 22.9273H31.0242V53.3527H40.9551C40.9571 53.3527 40.959 53.3528 40.9608 53.3528C40.9621 53.3528 40.9634 53.3527 40.9646 53.3527H50.8703C51.7116 53.3527 52.4434 52.7763 52.6405 51.9586L59.0974 25.175C59.2282 24.6325 59.103 24.06 58.7578 23.6217C58.4126 23.1832 57.8854 22.9273 57.3274 22.9273ZM39.3508 49.711H32.8233V39.9552H40.5689L39.3508 49.711ZM41.0236 36.3133H32.8233V26.5691H42.2402L41.0236 36.3133ZM49.4363 49.711H43.021L44.2391 39.9552H51.7882L49.4363 49.711ZM52.6662 36.3133H44.6938L45.9104 26.5691H55.0153L52.6662 36.3133Z" fill="#FF641A"/>
<path d="M10.8286 21.7271C10.5413 21.7271 10.2497 21.6588 9.97814 21.5151C9.08941 21.0446 8.75036 19.9426 9.22088 19.0539L18.4529 1.61639C18.9234 0.727664 20.0256 0.388733 20.9141 0.859134C21.8029 1.32966 22.1419 2.43167 21.6714 3.32039L12.4394 20.7579C12.1127 21.375 11.4815 21.7271 10.8286 21.7271Z" fill="#444444"/>
<path d="M51.1606 21.7271C50.5076 21.7271 49.8766 21.375 49.5497 20.7579L40.3177 3.32038C39.8472 2.43166 40.1862 1.32965 41.0749 0.859126C41.964 0.388604 43.0657 0.727657 43.5362 1.61638L52.7682 19.0539C53.2387 19.9426 52.8997 21.0446 52.0109 21.5151C51.7395 21.6588 51.4479 21.7271 51.1606 21.7271Z" fill="#292929"/>
<path d="M60.9518 26.5692H1.04836C0.469429 26.5692 0 26.0999 0 25.5209V19.7271C0 19.1482 0.469308 18.6788 1.04836 18.6788H60.9518C61.5307 18.6788 62.0001 19.1481 62.0001 19.7271V25.5209C62 26.0998 61.5307 26.5692 60.9518 26.5692Z" fill="#FF4A4A"/>
<path d="M60.9517 18.6747L31.0195 18.6789V26.5692L60.9517 26.5651C61.5306 26.5651 62 26.0958 62 25.5167V19.723C61.9999 19.1441 61.5306 18.6747 60.9517 18.6747Z" fill="#E20059"/>
</svg>
