<svg width="62" height="62" viewBox="0 0 62 62" fill="none" xmlns="http://www.w3.org/2000/svg">
<g clip-path="url(#clip0)">
<path d="M56.2944 7.78235H5.70557C2.55956 7.78235 0 10.3418 0 13.4918C0 16.6378 2.55956 19.1974 5.70557 19.1974H56.2944C59.4404 19.1974 62 16.6378 62 13.4918C62 10.3418 59.4404 7.78235 56.2944 7.78235Z" fill="black"/>
<path d="M56.2944 25.2925H5.70557C2.55956 25.2925 0 27.8519 0 31.0019C0 34.1479 2.55956 36.7075 5.70557 36.7075H56.2944C59.4404 36.7075 62 34.1479 62 31.0019C62 27.8519 59.4404 25.2925 56.2944 25.2925Z" fill="black"/>
<path d="M56.2944 42.8027H5.70557C2.55956 42.8027 0 45.3622 0 48.5121C0 51.6581 2.55956 54.2177 5.70557 54.2177H56.2944C59.4404 54.2177 62 51.6581 62 48.5121C62 45.3622 59.4404 42.8027 56.2944 42.8027Z" fill="black"/>
</g>
<defs>
<clipPath id="clip0">
<rect width="62" height="62" fill="white"/>
</clipPath>
</defs>
</svg>
